<?xml version="1.0" encoding="utf-8"?>
<!-- Svg Vector Icons : http://www.onlinewebfonts.com/icon -->
<!DOCTYPE svg PUBLIC "-//W3C//DTD SVG 1.1//EN" "http://www.w3.org/Graphics/SVG/1.1/DTD/svg11.dtd">
<svg version="1.1" xmlns="http://www.w3.org/2000/svg" xmlns:xlink="http://www.w3.org/1999/xlink" x="0px" y="0px" viewBox="0 0 256 256" enable-background="new 0 0 256 256" xml:space="preserve">
<metadata> Svg Vector Icons : http://www.onlinewebfonts.com/icon </metadata>
<g><g><path fill="#000000" d="M46.2,50.1l80.6,98.8l83.7-98.2l-27.3-0.2c-5.7,0-9-6.5-5.8-11.1l0,0c1.3-1.9,3.5-3.1,5.8-3.1h48.7c3.5,0,5.3,4,3.1,6.7L134.3,161.1V231h48.1c6.1,0,11.1,1.4,11.1,7.5c0,6.1-5,7.5-11.1,7.5H65.6c-6.1,0-11.1-1.4-11.1-7.5s5-7.5,11.1-7.5h52.5v-69.9L20.9,42.8c-2.1-2.7-0.2-6.6,3.2-6.6h113.8c4.7,0,7.7,5,5.4,9.2l-1,1.8c-1.1,2-3.2,3.2-5.5,3.2L46.2,50.1z"/><path fill="#000000" d="M126.9,83.4c0,9.9,8.1,18,18,18c9.9,0,18-8.1,18-18s-8.1-18-18-18C135,65.4,126.9,73.5,126.9,83.4L126.9,83.4z"/><path fill="#000000" d="M155.4,68.5l-10.9-2.1c0.1-0.6,2.7-13.8,9.8-27.3c9.9-18.8,23.7-28.8,40.1-29.1c1.1,0,2.3,0,3.4,0c0.1,0,0.3,0,0.4,0c1.4,0.1,2.5,1.3,2.3,2.7l-0.6,6.1c-0.1,1.3-1.3,2.3-2.6,2.2h0c-0.9,0-1.8,0-2.7,0C164.7,21.6,155.5,68,155.4,68.5z"/></g></g>
</svg>