<svg xmlns="http://www.w3.org/2000/svg" xmlns:xlink="http://www.w3.org/1999/xlink" version="1.1" width="256" height="256" viewBox="0 0 256 256" xml:space="preserve">

<defs>
</defs>
<g style="stroke: none; stroke-width: 0; stroke-dasharray: none; stroke-linecap: butt; stroke-linejoin: miter; stroke-miterlimit: 10; fill: none; fill-rule: nonzero; opacity: 1;" transform="translate(1.4065934065934016 1.4065934065934016) scale(2.81 2.81)" >
	<path d="M 27.4 66.824 c -3.17 0 -6.34 -1.491 -9.488 -4.474 c -5.458 -5.169 -10.766 -5.171 -16.225 0 c -0.4 0.381 -1.032 0.364 -1.414 -0.038 c -0.38 -0.4 -0.363 -1.033 0.039 -1.413 c 6.294 -5.965 12.68 -5.965 18.975 0 c 5.458 5.169 10.766 5.171 16.225 0 c 6.296 -5.967 12.681 -5.963 18.975 0 c 5.461 5.171 10.767 5.169 16.226 0 c 6.295 -5.965 12.68 -5.965 18.975 0 c 0.401 0.38 0.418 1.013 0.038 1.413 c -0.38 0.402 -1.013 0.419 -1.413 0.038 c -5.459 -5.17 -10.766 -5.17 -16.225 0 c -6.294 5.964 -12.68 5.966 -18.976 0 c -5.459 -5.17 -10.766 -5.17 -16.225 0 C 33.74 65.333 30.57 66.824 27.4 66.824 z" style="stroke: none; stroke-width: 1; stroke-dasharray: none; stroke-linecap: butt; stroke-linejoin: miter; stroke-miterlimit: 10; fill: rgb(0,0,0); fill-rule: nonzero; opacity: 1;" transform=" matrix(1 0 0 1 0 0) " stroke-linecap="round" />
	<path d="M 27.4 76.824 c -3.17 0 -6.34 -1.491 -9.488 -4.474 c -5.458 -5.17 -10.766 -5.17 -16.225 0 c -0.4 0.381 -1.032 0.364 -1.414 -0.038 c -0.38 -0.4 -0.363 -1.033 0.039 -1.413 c 6.294 -5.964 12.68 -5.966 18.975 0 c 5.458 5.169 10.766 5.171 16.225 0 c 6.296 -5.967 12.681 -5.963 18.975 0 c 5.461 5.172 10.767 5.168 16.226 0 c 6.295 -5.965 12.68 -5.965 18.975 0 c 0.401 0.38 0.418 1.013 0.038 1.413 c -0.38 0.402 -1.013 0.418 -1.413 0.038 c -5.459 -5.17 -10.766 -5.17 -16.225 0 c -6.294 5.964 -12.68 5.966 -18.976 0 c -5.459 -5.17 -10.766 -5.17 -16.225 0 C 33.74 75.333 30.57 76.824 27.4 76.824 z" style="stroke: none; stroke-width: 1; stroke-dasharray: none; stroke-linecap: butt; stroke-linejoin: miter; stroke-miterlimit: 10; fill: rgb(0,0,0); fill-rule: nonzero; opacity: 1;" transform=" matrix(1 0 0 1 0 0) " stroke-linecap="round" />
	<path d="M 39.135 42.906 c -4.096 0 -7.428 -3.332 -7.428 -7.428 s 3.332 -7.428 7.428 -7.428 s 7.428 3.332 7.428 7.428 S 43.23 42.906 39.135 42.906 z M 39.135 30.05 c -2.993 0 -5.428 2.435 -5.428 5.428 s 2.435 5.428 5.428 5.428 s 5.428 -2.435 5.428 -5.428 S 42.127 30.05 39.135 30.05 z" style="stroke: none; stroke-width: 1; stroke-dasharray: none; stroke-linecap: butt; stroke-linejoin: miter; stroke-miterlimit: 10; fill: rgb(0,0,0); fill-rule: nonzero; opacity: 1;" transform=" matrix(1 0 0 1 0 0) " stroke-linecap="round" />
	<path d="M 89.688 50.899 c -2.386 -2.26 -4.784 -3.66 -7.186 -4.207 V 19.289 c 0 -2.211 0.915 -3.679 1.521 -3.679 s 1.521 1.467 1.521 3.679 c 0 0.552 0.447 1 1 1 s 1 -0.448 1 -1 c 0 -3.237 -1.514 -5.679 -3.521 -5.679 s -3.521 2.441 -3.521 5.679 v 6.539 h -15.97 v -6.943 c 0 -2.211 0.915 -3.679 1.521 -3.679 s 1.521 1.467 1.521 3.679 c 0 0.552 0.447 1 1 1 s 1 -0.448 1 -1 c 0 -3.237 -1.514 -5.679 -3.521 -5.679 s -3.521 2.441 -3.521 5.679 v 35.888 c -2.669 -0.021 -5.338 -1.309 -8.045 -3.873 c -6.24 -5.912 -12.568 -5.958 -18.811 -0.145 L 24.023 28.27 c -0.782 -1.506 -2.323 -2.441 -4.02 -2.441 H 5.13 c -2.154 0 -3.907 1.752 -3.907 3.907 v 1.7 c 0 2.154 1.752 3.906 3.907 3.906 h 10.012 c 0.563 0 1.074 0.31 1.334 0.808 l 1.666 3.19 c 0 0.001 0 0.001 0.001 0.002 l 0.83 1.588 L 8.74 46.488 c -2.817 0.295 -5.631 1.761 -8.428 4.411 c -0.401 0.38 -0.418 1.013 -0.039 1.413 c 0.381 0.402 1.014 0.419 1.414 0.038 c 5.459 -5.171 10.767 -5.169 16.225 0 c 3.147 2.982 6.317 4.474 9.488 4.474 c 3.17 0 6.34 -1.491 9.487 -4.474 c 5.459 -5.17 10.766 -5.17 16.225 0 c 6.296 5.966 12.682 5.964 18.976 0 c 5.459 -5.17 10.766 -5.17 16.225 0 c 0.4 0.381 1.033 0.364 1.413 -0.038 C 90.105 51.912 90.089 51.279 89.688 50.899 z M 19.288 50.899 c -2.285 -2.165 -4.581 -3.533 -6.881 -4.127 l 7.493 -4.071 l 1.653 3.164 c 0.178 0.342 0.526 0.538 0.887 0.538 c 0.156 0 0.314 -0.037 0.462 -0.114 c 0.49 -0.256 0.679 -0.86 0.423 -1.349 l -2.123 -4.064 c 0 -0.001 0 -0.001 -0.001 -0.002 l -2.953 -5.652 c -0.607 -1.161 -1.797 -1.882 -3.107 -1.882 H 5.13 c -1.051 0 -1.907 -0.855 -1.907 -1.906 v -1.7 c 0 -1.051 0.855 -1.907 1.907 -1.907 h 14.873 c 0.948 0 1.809 0.522 2.245 1.362 l 11.871 22.905 C 29.147 56.018 24.28 55.627 19.288 50.899 z M 64.532 35.76 h 15.97 v 5.931 h -15.97 V 35.76 z M 80.502 27.828 v 5.932 h -15.97 v -5.932 H 80.502 z M 70.713 50.899 c -2.077 1.966 -4.131 3.18 -6.181 3.651 V 43.691 h 15.97 v 2.753 C 77.231 46.346 73.96 47.822 70.713 50.899 z" style="stroke: none; stroke-width: 1; stroke-dasharray: none; stroke-linecap: butt; stroke-linejoin: miter; stroke-miterlimit: 10; fill: rgb(0,0,0); fill-rule: nonzero; opacity: 1;" transform=" matrix(1 0 0 1 0 0) " stroke-linecap="round" />
</g>
</svg>